<?xml version="1.0" ?><svg data-name="Layer 1" id="Layer_1" viewBox="0 0 32 32" xmlns="http://www.w3.org/2000/svg"><path d="M12.83117,30.62969a.59974.59974,0,0,1-.59961-.59961c0-8.58106-1.97266-10.55469-10.55371-10.55469a.59961.59961,0,1,1,0-1.19922c8.58105,0,10.55371-1.97266,10.55371-10.55371a.59961.59961,0,1,1,1.19922,0c0,8.58105,1.97265,10.55371,10.55371,10.55371a.59961.59961,0,1,1,0,1.19922c-8.58106,0-10.55371,1.97363-10.55371,10.55469A.59975.59975,0,0,1,12.83117,30.62969ZM7.64269,18.87578a6.66816,6.66816,0,0,1,5.18848,5.18848,6.66814,6.66814,0,0,1,5.18847-5.18848,6.66814,6.66814,0,0,1-5.18847-5.18848A6.66816,6.66816,0,0,1,7.64269,18.87578Z"/><path d="M30.32238,6.97636c-4.36328,0-5.2461-.88281-5.2461-5.24609a.59961.59961,0,1,0-1.19922,0c0,4.36328-.88281,5.24609-5.24707,5.24609a.59961.59961,0,0,0,0,1.19922c4.36426,0,5.24707.88282,5.24707,5.2461a.59961.59961,0,0,0,1.19922,0c0-4.36328.88282-5.2461,5.2461-5.2461a.59961.59961,0,1,0,0-1.19922Z"/></svg>